<svg xmlns="http://www.w3.org/2000/svg" viewBox="0 0 512 512">
 <defs>
  <linearGradient id="bg" x1="0" y1="0" x2="1" y2="1">
   <stop offset="0" stop-color="#22C55E"/><stop offset="1" stop-color="#16A34A"/></linearGradient>
  <clipPath id="round"><rect width="512" height="512" rx="112"/></clipPath>
 </defs>
 <rect width="512" height="512" rx="112" fill="url(#bg)"/>
 
 <!-- 배경: 해와 산 (종 뒤로 살짝) -->
 <g clip-path="url(#round)">
  <circle cx="62" cy="68" r="30" fill="#F4B324"/>
  <path d="M-20 330 L44 262 L100 314 L160 258 L226 330 L226 420 L-20 420Z" fill="#0F7A38" opacity=".42"/>
  <path d="M-20 372 L36 322 L92 366 L146 320 L210 378 L210 430 L-20 430Z" fill="#0F7A38" opacity=".28"/>
 </g>

 <!-- 반짝임 -->
 <g stroke="#F4B324" stroke-width="19" stroke-linecap="round">
  <path d="M446 74 L436 112"/><path d="M488 116 L456 144"/>
 </g>

 <!-- 종 (봉화 글씨를 넉넉히 감싸도록 크게) -->
 <rect x="240" y="58" width="32" height="38" rx="16" fill="#fff"/>
 <path d="M256 84c-84 0-124 92-132 186-4 44-14 70-28 92h320c-14-22-24-48-28-92-8-94-48-186-132-186Z" fill="#fff"/>
 <rect x="72" y="358" width="368" height="48" rx="24" fill="#fff"/>
 <path d="M100 360H412" stroke="#16A34A" stroke-width="7" stroke-linecap="round" opacity=".22"/>
 <rect x="248" y="400" width="16" height="34" rx="8" fill="#F4B324"/>
 <circle cx="256" cy="458" r="30" fill="#F4B324"/>

 <path d="M835 287V392H497V448H728V791H594V716H272V792H138V448H366V392H30V287ZM746 91C746 192 629 255 431 255C235 255 118 192 118 91C118 -6 235 -72 433 -72C629 -72 746 -6 746 91ZM609 89C609 56 539 28 431 28C326 28 256 56 256 89C256 126 326 153 431 153C539 153 609 126 609 89ZM594 552H272V614H594Z" fill="#16A34A" transform="translate(144.82 318) scale(0.13200 -0.13200)"/>
  <path d="M526 359C526 447 436 515 305 515C172 515 84 447 84 359C84 287 144 228 239 209V160C163 157 86 157 20 158C25 121 31 81 37 45C193 45 376 54 575 79L568 181C515 174 446 168 370 165V209C465 228 526 287 526 359ZM743 812H612V-79H743V348H850V456H743ZM562 535V634H48V535ZM182 668H436V767H182ZM391 359C391 325 354 300 305 300C255 300 219 325 219 359C219 393 255 421 305 421C354 421 391 393 391 359Z" fill="#16A34A" transform="translate(253.00 318) scale(0.13200 -0.13200)"/>

 <!-- 오늘 날짜 -->
 <g>
  <rect x="286" y="310" width="202" height="180" rx="28" fill="#fff"/>
  <path d="M286 338a28 28 0 0 1 28-28h146a28 28 0 0 1 28 28v34H286Z" fill="#F4B324"/>
  <rect x="330" y="290" width="17" height="38" rx="8" fill="#0F7A38"/>
  <rect x="427" y="290" width="17" height="38" rx="8" fill="#0F7A38"/>
  <path d="M835 30V135H498V272C661 291 764 387 764 517C764 663 633 765 432 765C232 765 101 663 101 517C101 388 203 292 365 272V135H30V30ZM629 516C629 430 550 371 432 371C312 371 235 430 235 516C235 602 312 659 432 659C552 659 629 602 629 516Z" fill="#fff" transform="translate(361.05 362) scale(0.03000 -0.03000)"/>
  <path d="M738 518V621H274V796H140V518ZM835 363V468H30V363ZM761 -79V30H258V72H729V311H129V208H596V164H129V-79Z" fill="#fff" transform="translate(387.00 362) scale(0.03000 -0.03000)"/>
  <path d="M48 41H492V150H230L301 222C371 295 490 417 490 541C490 667 412 738 254 738C174 738 104 716 56 689L74 588C112 608 169 629 212 629C297 629 343 602 343 521C343 440 261 350 167 250L48 123Z" fill="#16A34A" transform="translate(333.51 462) scale(0.09400 -0.09400)"/>
  <path d="M299 29C469 29 567 112 567 230C567 325 499 376 420 404C492 436 540 493 540 565C540 674 451 738 300 738C149 738 55 665 55 554C55 470 102 424 172 391C97 361 36 299 36 214C36 104 127 29 299 29ZM295 128C213 128 165 166 165 228C165 283 220 328 279 348C375 326 426 288 426 223C426 167 377 128 295 128ZM317 449C233 468 195 503 195 558C195 607 235 638 302 638C376 638 411 603 411 554C411 503 366 468 317 449Z" fill="#16A34A" transform="translate(383.90 462) scale(0.09400 -0.09400)"/>
 </g>
 
</svg>
